<svg width="947" height="247" viewBox="0 0 947 247" fill="none" xmlns="http://www.w3.org/2000/svg">
<path d="M795.42 53.5698H812.712V74.2214H830.004V53.5698H848.449V109.847H830.004V87.9939H812.712V109.847H795.42V53.5698Z" fill="white"/>
<path d="M795.42 145.399V159.176H811.564V202.804H832.31V159.176H848.453V145.399H795.42Z" fill="white"/>
<path d="M794.271 135.066V121.289H848.452V135.066" fill="#ED1F24"/>
<path d="M759.667 192.477C746.569 180.095 737.536 164.058 733.754 146.471C729.972 128.884 731.618 110.569 738.475 93.9308C745.332 77.2922 757.08 63.1073 772.177 53.2381C787.274 43.3688 805.015 38.2765 823.07 38.6295C876.094 38.6295 922.21 82.2723 929.146 123.59C933.162 143.199 931.501 163.54 924.355 182.245C917.209 200.949 904.873 217.246 888.784 229.235C929.146 200.537 963.715 153.46 916.456 66.1842C916.456 66.1842 888.784 17.9442 818.469 17.9442C758.539 16.8202 684.76 131.631 759.667 192.477Z" fill="white"/>
<path d="M759.704 192.496C759.704 192.496 717.022 159.21 726.283 108.688C734.357 63.912 780.464 24.881 823.156 24.881C876.179 24.881 946.504 83.4396 944.246 124.767C943.217 144.821 937.718 164.395 928.147 182.069C918.576 199.742 905.174 215.072 888.913 226.944C933.808 200.528 973.023 125.939 924.591 55.8704C912.801 39.8656 897.32 26.9188 879.453 18.1219C861.586 9.32494 841.857 4.93579 821.93 5.32453C798.804 5.61855 776.401 13.3935 758.1 27.4769C739.799 41.5603 726.592 61.1884 720.471 83.401C712.42 120.136 716.998 159.181 759.704 192.496Z" fill="white"/>
<path d="M902.654 216.591C914.08 204.008 922.421 188.958 927.021 172.622C931.622 156.287 932.357 139.112 929.168 122.446C922.252 82.2478 876.145 36.3378 823.093 36.3378H821.916C800.402 36.3454 779.559 43.7951 762.949 57.4133C746.34 71.0316 734.995 89.9727 730.855 110.999C727.306 131.491 730.96 152.575 741.201 170.696C742.85 173.564 744.788 176.256 746.985 178.733C742.809 174.418 738.959 169.802 735.466 164.922C729.636 156.972 725.331 148.018 722.766 138.51C720.343 129.548 719.177 120.294 719.303 111.013C719.39 102.097 720.553 93.2229 722.766 84.5826C725.428 75.8607 728.9 67.4046 733.137 59.3242C738.761 49.9276 745.756 41.4153 753.892 34.0657C772.603 16.4539 797.342 6.59219 823.088 6.48208C838.462 6.15319 853.748 8.88725 868.046 14.5237C879.138 18.874 889.603 24.6647 899.172 31.7454C907.864 39.6212 915.6 48.4838 922.222 58.1519C931.816 71.219 938.523 86.1611 941.903 101.995C945.282 117.829 945.257 134.196 941.829 150.02C938.299 166.636 931.221 182.3 921.074 195.95C915.856 203.586 909.67 210.519 902.669 216.577L902.654 216.591Z" fill="white"/>
<path d="M885.339 63.8927C895.363 74.0507 902.874 86.3932 907.28 99.943C911.685 113.493 912.863 127.878 910.72 141.96C903.803 186.736 864.603 216.587 817.344 215.439C771.223 214.276 728.555 179.852 714.751 132.75C705.548 100.594 718.205 52.3585 752.793 25.9761C710.14 52.3827 668.644 124.714 720.505 197.04C731.839 211.759 746.287 223.814 762.824 232.348C779.361 240.881 797.581 245.685 816.191 246.418C881.895 248.719 915.331 195.901 922.267 169.49C927.748 150.243 927.148 129.783 920.548 110.887C913.948 91.9918 901.669 75.5775 885.378 63.8734L885.339 63.8927Z" fill="white"/>
<path d="M885.343 63.8925C895.366 74.0509 902.877 86.3936 907.281 99.9434C911.686 113.493 912.863 127.878 910.719 141.959C903.802 186.736 864.603 216.587 817.343 215.438C771.227 214.29 728.55 179.847 714.75 132.77C705.547 100.613 718.204 52.3776 752.792 25.9951C710.139 57.0134 677.861 123.585 729.741 195.921C729.741 195.921 753.959 232.66 817.353 234.961C883.057 237.262 908.413 195.921 915.34 168.39C921.07 144.26 927.996 101.804 885.343 63.8925Z" fill="white"/>
<path d="M819.633 245.294H816.179C801.991 244.953 787.961 242.234 774.679 237.253C763.856 233.088 753.745 227.278 744.707 220.031C735.284 213.458 727.088 205.295 720.489 195.911C710.199 181.786 702.77 165.801 698.615 148.848C695.158 134.514 695.158 119.568 698.615 105.234C702.354 88.3347 709.409 72.3375 719.374 58.1618L736.632 40.916C725.993 53.6717 718.479 68.7171 714.683 84.8632C710.888 101.009 710.915 117.813 714.763 133.947C720.981 157.018 734.357 177.543 752.983 192.593C771.608 207.643 794.531 216.449 818.48 217.754H820.791C842.713 218.375 864.141 211.208 881.244 197.536C898.347 183.863 910.008 164.577 914.142 143.127C917.605 123.374 913.936 103.038 903.786 85.7213C902.12 82.509 900.184 79.4429 897.998 76.5557C910.784 89.0631 919.602 105.033 923.359 122.485C926.892 138.373 926.892 154.838 923.359 170.725C917.853 189.173 907.507 205.825 893.387 218.965C884.417 226.912 874.317 233.496 863.415 238.502C849.255 243.026 834.479 245.349 819.609 245.391L819.633 245.294Z" fill="white"/>
<path d="M17.2917 77.6891H31.1252C43.8058 77.6891 49.5697 82.2816 49.5697 90.3184C49.5697 97.207 43.8058 102.948 32.2779 102.948H17.2869L17.2917 77.6891ZM-7.87922e-05 159.215H34.5787C53.0232 159.215 71.4678 152.326 71.4678 131.655C71.5637 125.924 69.4761 120.369 65.6252 116.108C61.7743 111.848 56.4461 109.198 50.7128 108.693C55.427 107.314 59.558 104.435 62.4735 100.497C65.3891 96.5581 66.9286 91.7765 66.8567 86.8837C66.8567 69.662 51.8656 62.7637 36.8842 62.7637H-0.00488281L-7.87922e-05 159.215ZM17.2917 116.735H33.4355C47.269 116.735 54.1905 120.174 54.1905 130.512C54.1905 143.141 41.5099 144.289 33.4355 144.289H17.2917V116.735Z" fill="white"/>
<path d="M81.8496 60.4434H97.9935V159.181H81.8496V60.4434Z" fill="white"/>
<path d="M125.658 127.029C125.426 122.084 127.177 117.249 130.524 113.589C133.871 109.929 138.541 107.743 143.506 107.511C144.088 107.486 144.672 107.486 145.26 107.511C147.816 107.486 150.352 107.963 152.723 108.916C155.093 109.868 157.252 111.277 159.075 113.062C160.898 114.847 162.349 116.973 163.345 119.317C164.342 121.662 164.864 124.179 164.881 126.725V127.058C165.113 132.004 163.363 136.838 160.015 140.498C156.668 144.159 151.998 146.345 147.033 146.576C146.451 146.602 145.867 146.602 145.279 146.576C142.728 146.598 140.197 146.12 137.832 145.168C135.466 144.216 133.312 142.81 131.492 141.028C129.672 139.247 128.222 137.127 127.225 134.788C126.229 132.449 125.704 129.937 125.682 127.396C125.666 127.274 125.658 127.152 125.658 127.029ZM109.514 127.029C109.413 136.071 112.923 144.783 119.272 151.248C125.62 157.713 134.287 161.401 143.366 161.502H145.245C154.417 161.814 163.338 158.484 170.046 152.246C176.753 146.007 180.697 137.37 181.011 128.235C181.324 119.1 177.981 110.215 171.717 103.535C165.453 96.8552 156.781 92.927 147.609 92.6148H145.245C136.175 92.2185 127.318 95.4269 120.622 101.534C113.927 107.642 109.941 116.148 109.543 125.182C109.52 125.789 109.511 126.405 109.514 127.029Z" fill="white"/>
<path d="M205.24 127.029C205.008 122.084 206.759 117.249 210.106 113.589C213.453 109.929 218.123 107.743 223.089 107.511C223.67 107.486 224.254 107.486 224.842 107.511C227.394 107.487 229.925 107.963 232.292 108.912C234.659 109.862 236.815 111.267 238.637 113.047C240.458 114.827 241.91 116.947 242.909 119.285C243.908 121.624 244.435 124.136 244.459 126.677C244.459 126.796 244.459 126.913 244.459 127.029C244.459 132.206 242.394 137.17 238.719 140.83C235.043 144.491 230.059 146.547 224.861 146.547C219.664 146.547 214.679 144.491 211.004 140.83C207.329 137.17 205.264 132.206 205.264 127.029H205.24ZM187.948 127.029C187.847 136.071 191.357 144.783 197.706 151.248C204.054 157.713 212.721 161.401 221.8 161.502H223.679C232.852 161.814 241.773 158.484 248.48 152.246C255.187 146.007 259.131 137.37 259.445 128.235C259.758 119.1 256.415 110.215 250.151 103.535C243.887 96.8552 235.215 92.927 226.043 92.6148H223.679C214.609 92.2185 205.752 95.4269 199.056 101.534C192.361 107.642 188.375 116.148 187.977 125.182C187.922 125.786 187.898 126.402 187.904 127.029H187.948Z" fill="white"/>
<path d="M269.757 93.7679H284.748V104.096C286.506 100.466 289.306 97.4366 292.794 95.3927C296.282 93.3488 300.301 92.3821 304.341 92.615C308.732 92.0286 313.192 92.9635 316.973 95.2628C320.755 97.5621 323.627 101.086 325.11 105.244C327.166 101.278 330.319 97.9803 334.197 95.7422C338.076 93.5042 342.516 92.419 346.994 92.615C364.286 92.615 370.049 105.244 370.049 120.174V159.215H353.906V122.476C353.906 114.434 351.595 107.545 341.225 107.545C330.855 107.545 327.392 115.587 327.392 124.767V160.334H311.248V121.294C311.248 113.257 307.794 107.516 299.72 107.516C297.641 107.479 295.578 107.879 293.665 108.689C291.752 109.5 290.032 110.703 288.618 112.22C287.203 113.737 286.126 115.534 285.455 117.494C284.785 119.454 284.538 121.533 284.729 123.595V159.181H268.585V93.7679H269.757Z" fill="white"/>
<path d="M439.206 127.034C439.431 131.975 437.677 136.804 434.331 140.458C430.984 144.113 426.318 146.296 421.357 146.528C420.776 146.553 420.191 146.553 419.604 146.528C417.052 146.549 414.521 146.07 412.155 145.117C409.789 144.165 407.635 142.757 405.816 140.975C403.996 139.193 402.547 137.071 401.551 134.731C400.555 132.392 400.032 129.879 400.011 127.338C400.011 127.225 400.011 127.116 400.011 127.01C399.78 122.064 401.53 117.23 404.877 113.57C408.224 109.909 412.894 107.723 417.86 107.492C418.441 107.466 419.026 107.466 419.613 107.492C422.165 107.47 424.696 107.949 427.062 108.902C429.427 109.855 431.582 111.263 433.401 113.045C435.22 114.827 436.669 116.948 437.665 119.288C438.661 121.628 439.185 124.14 439.206 126.682C439.206 126.804 439.206 126.921 439.206 127.034ZM383.872 159.191H398.863V148.877C401.343 152.65 404.784 155.701 408.834 157.718C412.885 159.735 417.4 160.646 421.919 160.358C442.674 160.358 454.206 145.428 454.206 125.92C454.206 106.411 441.526 91.481 423.081 91.481C418.849 91.1963 414.615 91.9961 410.781 93.8041C406.948 95.6121 403.643 98.3681 401.183 101.809V60.4434H385.039V159.181L383.872 159.191Z" fill="white"/>
<path d="M478.415 120.15C478.629 115.974 480.499 112.053 483.614 109.249C486.73 106.445 490.835 104.987 495.029 105.196L495.707 105.244C497.794 104.967 499.916 105.152 501.923 105.787C503.929 106.423 505.769 107.492 507.312 108.919C508.855 110.346 510.062 112.095 510.847 114.041C511.631 115.986 511.974 118.081 511.85 120.174L478.415 120.15ZM529.133 132.789V128.197C529.133 105.234 516.452 92.6051 498.007 92.6051C488.835 92.2929 479.914 95.6224 473.207 101.861C466.5 108.1 462.555 116.736 462.242 125.871C461.928 135.006 465.271 143.891 471.536 150.571C477.8 157.251 486.472 161.18 495.644 161.492H498.007C503.28 161.619 508.513 160.548 513.307 158.359C518.102 156.171 522.333 152.923 525.679 148.863L514.151 139.697C512.099 142.373 509.492 144.577 506.507 146.159C503.522 147.741 500.23 148.663 496.855 148.863C494.665 148.943 492.48 148.593 490.426 147.833C488.371 147.073 486.487 145.917 484.882 144.432C483.276 142.946 481.98 141.16 481.067 139.176C480.155 137.191 479.643 135.047 479.563 132.866V132.784L529.133 132.789Z" fill="white"/>
<path d="M539.507 93.7488H555.651V104.077C557.274 100.343 560.046 97.2187 563.568 95.1552C567.089 93.0917 571.177 92.1955 575.243 92.5959C577.235 92.418 579.237 92.8167 581.007 93.744V109.822C578.428 108.881 575.678 108.49 572.938 108.674C568.637 108.399 564.402 109.837 561.166 112.671C557.93 115.506 555.956 119.504 555.68 123.788V159.211H539.536L539.507 93.7488Z" fill="white"/>
<path d="M617.889 107.521C622.859 107.294 627.715 109.043 631.39 112.382C635.065 115.721 637.258 120.377 637.487 125.326V127.053C637.718 131.999 635.968 136.833 632.621 140.493C629.273 144.154 624.603 146.34 619.638 146.571C619.056 146.597 618.472 146.597 617.884 146.571C612.986 146.858 608.174 145.196 604.506 141.951C600.838 138.705 598.615 134.141 598.326 129.263V128.192C597.99 125.497 598.256 122.762 599.105 120.182C599.955 117.602 601.365 115.24 603.237 113.266C605.109 111.292 607.396 109.755 609.934 108.763C612.472 107.772 615.198 107.351 617.918 107.53L617.889 107.521ZM637.487 93.7676V104.096C635.007 100.324 631.568 97.2741 627.52 95.2572C623.471 93.2404 618.958 92.3285 614.441 92.6146C593.686 92.6146 582.153 107.545 582.153 127.053C581.825 133.439 583.444 139.774 586.798 145.227C590.152 150.679 595.084 154.994 600.945 157.603C606.806 160.212 613.323 160.994 619.639 159.847C625.955 158.699 631.775 155.676 636.334 151.173V155.766C636.334 168.395 631.723 177.575 615.579 177.575C607.014 177.496 598.788 174.227 592.523 168.409L582.163 182.172C591.271 189.475 602.775 193.155 614.45 192.5C639.812 192.5 651.339 177.57 651.339 153.46V93.7676H637.487Z" fill="white"/>
<path d="M113.2 54.1099V17.6539H126.584C134.312 17.6539 140.808 20.3419 140.808 29.1339C140.808 34.4539 138.288 37.8699 134.536 39.6619L142.656 54.1099H132.912L126.192 41.2859H121.936V54.1099H113.2ZM121.936 34.3979H125.912C130.056 34.3979 132.296 32.6059 132.296 29.1339C132.296 25.6619 130.056 24.5419 125.912 24.5419H121.936V34.3979Z" fill="#C5943B"/>
<path d="M180.253 35.8539L179.469 38.9899H186.917L186.133 35.8539C185.181 32.2699 184.229 27.9579 183.277 24.1499H183.053C182.157 27.9579 181.205 32.2699 180.253 35.8539ZM166.757 54.1099L178.125 17.6539H188.541L199.909 54.1099H190.725L188.597 45.7099H177.789L175.661 54.1099H166.757Z" fill="#C5943B"/>
<path d="M227.751 54.1099V17.6539H238.223C249.367 17.6539 256.703 23.0859 256.703 35.7419C256.703 48.3419 249.367 54.1099 238.727 54.1099H227.751ZM236.487 47.1099H237.719C243.599 47.1099 247.799 44.3659 247.799 35.7419C247.799 27.0619 243.599 24.6539 237.719 24.6539H236.487V47.1099Z" fill="#C5943B"/>
<path d="M292.721 54.1099V41.2299L281.745 17.6539H291.041L294.121 25.7739C295.073 28.5179 295.969 31.0379 296.977 33.8939H297.201C298.209 31.0379 299.273 28.5179 300.225 25.7739L303.305 17.6539H312.377L301.401 41.2299V54.1099H292.721Z" fill="#C5943B"/>
<path d="M354.192 54.7819C344.28 54.7819 337.504 47.6699 337.504 35.7419C337.504 23.7579 344.28 16.9819 354.192 16.9819C364.104 16.9819 370.88 23.8139 370.88 35.7419C370.88 47.6699 364.104 54.7819 354.192 54.7819ZM354.192 47.2779C359.008 47.2779 361.976 42.7979 361.976 35.7419C361.976 28.6299 359.008 24.4859 354.192 24.4859C349.432 24.4859 346.408 28.6299 346.408 35.7419C346.408 42.7979 349.432 47.2779 354.192 47.2779Z" fill="#C5943B"/>
<path d="M438.75 27.82C438.75 36.27 443.17 39.13 449.02 39.13C453.18 39.13 457.73 36.92 460.85 31.46C459.03 18.72 453.83 15.08 448.63 15.08C443.3 15.08 438.75 18.72 438.75 27.82ZM446.16 85.67C434.98 85.67 426.79 80.99 421.46 75.53L432.12 63.57C434.85 66.69 440.05 69.42 444.73 69.42C453.7 69.42 460.46 63.18 461.24 44.72C456.95 50.18 449.93 53.3 445.12 53.3C430.95 53.3 420.29 45.37 420.29 27.82C420.29 10.53 433.03 0 448.11 0C464.1 0 479.7 11.83 479.7 41.08C479.7 71.63 463.58 85.67 446.16 85.67Z" fill="#C5943B"/>
<path d="M487.399 84.11V71.76C507.679 53.82 522.759 39.13 522.759 27.69C522.759 19.89 518.469 15.86 511.579 15.86C505.859 15.86 501.309 19.76 497.279 24.05L486.879 13.65C494.939 4.55 502.609 0 514.309 0C530.689 0 541.999 10.53 541.999 26.39C541.999 41.21 528.479 54.6 514.569 68.12C518.859 67.73 524.579 67.21 528.349 67.21H546.029V84.11H487.399Z" fill="#C5943B"/>
<path d="M569.069 85.67C562.179 85.67 557.109 80.21 557.109 73.19C557.109 66.17 562.179 60.71 569.069 60.71C575.959 60.71 581.159 66.17 581.159 73.19C581.159 80.21 575.959 85.67 569.069 85.67Z" fill="#C5943B"/>
<path d="M620.892 85.67C604.252 85.67 591.902 76.44 591.902 63.05C591.902 53.17 598.012 47.19 605.812 43.03V42.51C599.312 37.7 594.762 31.59 594.762 23.01C594.762 8.83999 605.942 0 621.542 0C636.752 0 646.892 8.97 646.892 22.75C646.892 30.55 641.822 36.79 636.102 40.56V41.08C644.032 45.37 650.402 51.74 650.402 62.66C650.402 75.79 638.572 85.67 620.892 85.67ZM625.962 35.75C628.952 31.98 630.512 28.21 630.512 24.18C630.512 17.94 627.002 13.91 621.022 13.91C616.342 13.91 612.442 16.9 612.442 23.01C612.442 29.38 617.772 32.5 625.962 35.75ZM621.282 71.76C627.132 71.76 631.682 68.77 631.682 62.01C631.682 55.12 625.052 52.52 614.912 48.23C611.662 51.35 609.192 55.9 609.192 60.71C609.192 67.73 614.782 71.76 621.282 71.76Z" fill="#C5943B"/>
<rect x="111" y="62.1099" width="262" height="20" fill="#C5943B"/>
</svg>
