<svg xmlns="http://www.w3.org/2000/svg" xmlns:xlink="http://www.w3.org/1999/xlink" width="192" height="192" viewBox="0 0 192 192"><defs><clipPath id="a"><rect width="33.551" height="32.396" fill="#fff"/></clipPath><clipPath id="b"><rect width="82.669" height="94.984" fill="#fff"/></clipPath></defs><g transform="translate(-645 -303)"><g transform="translate(645 303)"><rect width="192" height="192" transform="translate(0)" fill="#b78a37"/><g transform="translate(62.85 48.202)"><path d="M93.009,9.667v7.56h2.312V14.29h2.312v2.935H100.1V9.667H97.634v2.774H95.321V9.667Z" transform="translate(-30.597 -3.18)" fill="#fff"/><path d="M93.009,29.9h2.16v5.86h2.776V29.9h2.16V28.048h-7.1Z" transform="translate(-30.597 -9.227)" fill="#fff"/><rect width="7.093" height="1.972" transform="translate(62.412 15.522)" fill="#ed1f24"/><g transform="translate(49.116 0.003)"><g clip-path="url(#a)"><path d="M105.18,6.8A16.628,16.628,0,0,0,91.447,0a14.262,14.262,0,0,0-13.573,10.49,13.456,13.456,0,0,0,5.069,14.5c-.1-.086-.232-.205-.4-.363.18.159.355.331.551.492-.054-.043-.1-.086-.159-.129.081.07.14.119.159.138l.011.01h.008l-.011-.008A11.978,11.978,0,0,1,91.595,4.475c7.093,0,13.262,5.862,14.19,11.411a14.063,14.063,0,0,1,.231,1.674,14.733,14.733,0,0,1-2.943,9.8,18.143,18.143,0,0,1-2.671,2.406l-.018.309a17.507,17.507,0,0,0,5.037-5.225,15.715,15.715,0,0,0-.24-18.054" transform="translate(-74.605 -0.004)" fill="#fff"/><path d="M103.6,23.586a14.988,14.988,0,0,0,.342-3.673A13.082,13.082,0,0,0,98.519,9.235h0a12.326,12.326,0,0,1,3.395,10.485,11.852,11.852,0,0,1-12.49,9.867A15.228,15.228,0,0,1,75.7,18.482c-.075-.264-.138-.536-.194-.815a14.165,14.165,0,0,1-.188-2.1A14.709,14.709,0,0,1,80.788,4.144l-.025.021.027-.022a16.746,16.746,0,0,0-7.348,11.123,12.548,12.548,0,0,0,.1,5.381c.01.04.022.08.032.119a16.509,16.509,0,0,0,15.7,12.987,14.134,14.134,0,0,0,5.018-.7c.436-.107.869-.224,1.3-.363A16.318,16.318,0,0,0,99.6,30.063a14.536,14.536,0,0,0,4-6.478" transform="translate(-73.195 -1.366)" fill="#fff"/></g></g><g clip-path="url(#b)"><path d="M47.615,49.356A21.1,21.1,0,0,0,61.253,36.942,19.409,19.409,0,0,1,48.941,8.649,38.356,38.356,0,0,0,34.633,6.06H0V96.979H32.467C49.785,96.979,67.1,90.484,67.1,71A21.357,21.357,0,0,0,47.615,49.356M16.234,20.11h12.99c11.906,0,17.317,4.327,17.317,11.906,0,6.5-5.411,11.906-16.234,11.906H16.234Zm15.158,62.8H16.234V56.935H31.391c12.99,0,19.483,3.244,19.483,12.99,0,11.906-11.906,12.99-19.483,12.99" transform="translate(0 -1.994)" fill="#fff"/></g></g></g></g></svg>