<svg xmlns="http://www.w3.org/2000/svg" width="106.977" height="35" viewBox="0 0 106.977 35"><path d="M4.735,0h97.506a4.736,4.736,0,0,1,4.735,4.735h0V30.265A4.736,4.736,0,0,1,102.241,35H4.735A4.71,4.71,0,0,1,0,30.265H0V4.735A4.736,4.736,0,0,1,4.735,0Z"/><path d="M35.185,32.406a4.651,4.651,0,0,1,2.224-3.912,4.743,4.743,0,0,0-3.747-2.018c-1.565-.165-3.088.947-3.912.947s-2.059-.906-3.376-.906a4.961,4.961,0,0,0-4.2,2.553c-1.812,3.129-.453,7.741,1.276,10.294.865,1.235,1.894,2.635,3.212,2.594s1.771-.824,3.335-.824,2.018.824,3.376.782,2.265-1.235,3.129-2.512a10.506,10.506,0,0,0,1.441-2.882A4.43,4.43,0,0,1,35.185,32.406Z" transform="translate(-12.538 -15.564)" fill="#fff"/><path d="M44.431,17.794A4.355,4.355,0,0,0,45.46,14.5a4.587,4.587,0,0,0-3.006,1.565,4.266,4.266,0,0,0-1.071,3.171A4.066,4.066,0,0,0,44.431,17.794Z" transform="translate(-24.337 -8.529)" fill="#fff"/><path d="M87.976,48.465H86.165l-.988-3.129H81.718l-.947,3.129H79L82.418,37.8h2.141Zm-3.129-4.447-.906-2.8c-.082-.288-.288-.947-.535-2.018h-.041c-.124.453-.288,1.112-.494,2.018l-.906,2.8Z" transform="translate(-46.471 -22.235)" fill="#fff"/><path d="M111.553,48.589a4.5,4.5,0,0,1-1.071,3.088,3.179,3.179,0,0,1-2.347,1.029,2.268,2.268,0,0,1-2.182-1.112h-.041V55.63h-1.729V47.395c0-.824-.041-1.647-.082-2.512h1.524l.082,1.235h.041a3.052,3.052,0,0,1,4.2-.906,4.409,4.409,0,0,1,.659.576A4.063,4.063,0,0,1,111.553,48.589Zm-1.729.082a3.217,3.217,0,0,0-.494-1.853,1.664,1.664,0,0,0-1.482-.741,1.726,1.726,0,0,0-1.153.412,1.933,1.933,0,0,0-.659,1.112,2.087,2.087,0,0,0-.082.535v1.235a2.078,2.078,0,0,0,.494,1.4,1.869,1.869,0,0,0,2.841-.165,3.208,3.208,0,0,0,.535-1.935Z" transform="translate(-61.235 -26.312)" fill="#fff"/><path d="M133.053,48.6a4.306,4.306,0,0,1-1.071,3.088,3.179,3.179,0,0,1-2.347,1.029,2.268,2.268,0,0,1-2.182-1.112h-.041v4.035h-1.729V47.41c0-.824-.041-1.647-.082-2.512h1.482l.082,1.235h.041a3.005,3.005,0,0,1,4.2-.865,4.409,4.409,0,0,1,.659.576A3.75,3.75,0,0,1,133.053,48.6Zm-1.771.082a3.217,3.217,0,0,0-.494-1.853,1.664,1.664,0,0,0-1.482-.741,1.726,1.726,0,0,0-1.153.412,1.933,1.933,0,0,0-.659,1.112,2.086,2.086,0,0,0-.082.535v1.235a2.078,2.078,0,0,0,.494,1.4,1.776,1.776,0,0,0,1.318.576,1.664,1.664,0,0,0,1.482-.741A2.767,2.767,0,0,0,131.282,48.686Z" transform="translate(-73.882 -26.327)" fill="#fff"/><path d="M158.288,45.275a2.9,2.9,0,0,1-.947,2.224,4.344,4.344,0,0,1-2.882.947,4.985,4.985,0,0,1-2.759-.659l.412-1.441a4.77,4.77,0,0,0,2.471.7,2.124,2.124,0,0,0,1.482-.453,1.4,1.4,0,0,0,.535-1.153,1.591,1.591,0,0,0-.453-1.112,4.039,4.039,0,0,0-1.482-.824c-1.853-.7-2.8-1.729-2.8-3.047a2.593,2.593,0,0,1,.988-2.141,3.915,3.915,0,0,1,2.594-.824,5.586,5.586,0,0,1,2.429.494l-.412,1.4a4.465,4.465,0,0,0-2.059-.494,1.98,1.98,0,0,0-1.4.453,1.308,1.308,0,0,0,.082,1.976,5.164,5.164,0,0,0,1.565.824,5.057,5.057,0,0,1,2.018,1.318A2.84,2.84,0,0,1,158.288,45.275Z" transform="translate(-89.235 -22.051)" fill="#fff"/><path d="M174.694,43.571H172.8v3.747c0,.947.329,1.441.988,1.441a4.537,4.537,0,0,0,.741-.082l.041,1.318a4.64,4.64,0,0,1-1.318.206,2.048,2.048,0,0,1-1.565-.618,3.073,3.073,0,0,1-.576-2.059V43.653H170V42.294h1.112v-1.4L172.8,40.4v1.894h1.894v1.276Z" transform="translate(-100 -23.765)" fill="#fff"/><path d="M191.289,48.549a4.246,4.246,0,0,1-1.029,2.924,3.612,3.612,0,0,1-2.8,1.153,3.4,3.4,0,0,1-2.676-1.112,4.007,4.007,0,0,1-.988-2.841,4.246,4.246,0,0,1,1.029-2.924,3.927,3.927,0,0,1,5.518-.041A4.384,4.384,0,0,1,191.289,48.549Zm-1.771.041a3.391,3.391,0,0,0-.453-1.812,1.629,1.629,0,0,0-1.524-.906,1.75,1.75,0,0,0-1.606.906,3.267,3.267,0,0,0-.453,1.853,3.488,3.488,0,0,0,.453,1.812,1.732,1.732,0,0,0,2.347.741,1.835,1.835,0,0,0,.741-.741,3.566,3.566,0,0,0,.494-1.853Z" transform="translate(-108.113 -26.231)" fill="#fff"/><path d="M209.518,46.288a2.348,2.348,0,0,0-.535-.041,1.629,1.629,0,0,0-1.4.7,2.509,2.509,0,0,0-.412,1.524v4.035h-1.688V47.194c0-.906-.041-1.688-.082-2.429h1.482l.041,1.482h.041a2.609,2.609,0,0,1,.865-1.235,2.219,2.219,0,0,1,1.235-.412,1.4,1.4,0,0,1,.412.041l.041,1.647Z" transform="translate(-120.824 -26.235)" fill="#fff"/><path d="M224.289,48.32a4.984,4.984,0,0,1-.041.782h-5.106a2.166,2.166,0,0,0,.741,1.729,2.513,2.513,0,0,0,1.688.535A5.871,5.871,0,0,0,223.63,51l.288,1.194a6.166,6.166,0,0,1-2.594.453,3.88,3.88,0,0,1-2.8-1.029,3.945,3.945,0,0,1-1.029-2.8,4.344,4.344,0,0,1,.947-2.882,3.256,3.256,0,0,1,2.676-1.235,2.907,2.907,0,0,1,2.512,1.235A3.95,3.95,0,0,1,224.289,48.32Zm-1.647-.453a2.177,2.177,0,0,0-.329-1.318,1.513,1.513,0,0,0-1.359-.7,1.606,1.606,0,0,0-1.359.7,2.585,2.585,0,0,0-.494,1.318Z" transform="translate(-127.936 -26.29)" fill="#fff"/><path d="M85.682,18.246a2.674,2.674,0,0,1-.824,2.1A3.372,3.372,0,0,1,82.635,21c-.412,0-.824,0-1.235-.041V15.816a8.515,8.515,0,0,1,1.441-.124,3.056,3.056,0,0,1,2.059.618A2.434,2.434,0,0,1,85.682,18.246Zm-.865,0a1.791,1.791,0,0,0-.494-1.4,1.954,1.954,0,0,0-1.4-.494,3.542,3.542,0,0,0-.659.041v3.953c.206,0,.371.041.576.041a2.009,2.009,0,0,0,1.482-.535,2.483,2.483,0,0,0,.494-1.606Z" transform="translate(-47.882 -9.228)" fill="#fff"/><path d="M97.9,21.128a2.266,2.266,0,0,1-.494,1.441,1.806,1.806,0,0,1-1.4.576,1.6,1.6,0,0,1-1.318-.535,2.155,2.155,0,0,1-.494-1.4,2.054,2.054,0,0,1,.494-1.441,1.938,1.938,0,0,1,1.359-.576,1.6,1.6,0,0,1,1.318.535A1.644,1.644,0,0,1,97.9,21.128Zm-.865,0a1.763,1.763,0,0,0-.247-.906.82.82,0,0,0-.741-.453.883.883,0,0,0-.782.453,1.469,1.469,0,0,0-.206.906,1.763,1.763,0,0,0,.247.906.873.873,0,0,0,1.153.371.808.808,0,0,0,.371-.371A1.354,1.354,0,0,0,97.034,21.128Z" transform="translate(-55.404 -11.287)" fill="#fff"/><path d="M110.676,19.4l-1.194,3.788H108.7l-.494-1.647c-.124-.412-.206-.824-.288-1.235h0c-.082.412-.165.824-.288,1.235l-.535,1.647h-.782L105.2,19.4h.865l.412,1.812a6.861,6.861,0,0,1,.247,1.194h0c.082-.329.165-.7.329-1.194l.535-1.812h.7l.535,1.771c.124.412.206.824.288,1.235h.041l.247-1.235.453-1.771Z" transform="translate(-61.882 -11.412)" fill="#fff"/><path d="M124.394,23.029h-.824V20.888q0-.988-.741-.988a.741.741,0,0,0-.618.288.935.935,0,0,0-.247.659v2.224h-.824V20.353a9.672,9.672,0,0,0-.041-1.071h.741l.041.576h0a1.1,1.1,0,0,1,.412-.453,1.678,1.678,0,0,1,.741-.206,1.439,1.439,0,0,1,.906.329,1.706,1.706,0,0,1,.453,1.235v2.265Z" transform="translate(-71.235 -11.294)" fill="#fff"/><path d="M133.524,20.676H132.7V15.2h.824Z" transform="translate(-78.059 -8.941)" fill="#fff"/><path d="M141.4,21.128a2.054,2.054,0,0,1-.494,1.441,1.806,1.806,0,0,1-1.4.576,1.6,1.6,0,0,1-1.318-.535,2.078,2.078,0,0,1-.494-1.4,2.054,2.054,0,0,1,.494-1.441,1.938,1.938,0,0,1,1.359-.576,1.6,1.6,0,0,1,1.318.535A1.925,1.925,0,0,1,141.4,21.128Zm-.865,0a1.763,1.763,0,0,0-.247-.906.82.82,0,0,0-.741-.453.883.883,0,0,0-.782.453,1.784,1.784,0,0,0,0,1.812.883.883,0,0,0,.782.453.778.778,0,0,0,.741-.453,1.66,1.66,0,0,0,.247-.906Z" transform="translate(-80.993 -11.287)" fill="#fff"/><path d="M152.177,23.029h-.741l-.041-.453h-.041a1.386,1.386,0,0,1-1.112.535,1.329,1.329,0,0,1-.865-.329.939.939,0,0,1-.288-.782,1.242,1.242,0,0,1,.576-1.071,2.862,2.862,0,0,1,1.647-.371v-.041a.656.656,0,0,0-.576-.741h-.206a1.727,1.727,0,0,0-.988.288l-.165-.535a2.368,2.368,0,0,1,1.276-.329c.988,0,1.482.535,1.482,1.565v1.4A3.052,3.052,0,0,0,152.177,23.029Zm-.906-1.276v-.576c-.906,0-1.4.247-1.4.782a.619.619,0,0,0,.165.453.732.732,0,0,0,.412.165.656.656,0,0,0,.494-.165.675.675,0,0,0,.288-.453.448.448,0,0,0,.041-.206Z" transform="translate(-87.695 -11.294)" fill="#fff"/><path d="M162.916,20.559h-.741l-.041-.618h-.041a1.224,1.224,0,0,1-1.194.7,1.532,1.532,0,0,1-1.153-.535,2.194,2.194,0,0,1-.453-1.4,2.157,2.157,0,0,1,.494-1.482,1.532,1.532,0,0,1,1.153-.535,1.219,1.219,0,0,1,1.071.494h0V15h.824v4.488C162.875,19.941,162.916,20.271,162.916,20.559Zm-.865-1.565v-.865a.864.864,0,0,0-.865-.7.88.88,0,0,0-.741.371,1.327,1.327,0,0,0-.247.947,1.354,1.354,0,0,0,.206.906.88.88,0,0,0,.741.371.86.86,0,0,0,.659-.329A1.118,1.118,0,0,0,162.051,18.994Z" transform="translate(-93.698 -8.824)" fill="#fff"/><path d="M180.3,21.135a2.054,2.054,0,0,1-.494,1.441,1.806,1.806,0,0,1-1.4.576,1.6,1.6,0,0,1-1.318-.535,2.078,2.078,0,0,1-.494-1.4,2.054,2.054,0,0,1,.494-1.441,1.938,1.938,0,0,1,1.359-.576,1.739,1.739,0,0,1,1.318.535A1.925,1.925,0,0,1,180.3,21.135Zm-.906,0a1.763,1.763,0,0,0-.247-.906.82.82,0,0,0-.741-.453.883.883,0,0,0-.782.453,1.784,1.784,0,0,0,0,1.812.873.873,0,0,0,1.153.371.808.808,0,0,0,.371-.371A1.179,1.179,0,0,0,179.393,21.135Z" transform="translate(-103.875 -11.294)" fill="#fff"/><path d="M191.735,23.029h-.824V20.888c0-.659-.247-.988-.782-.988a.741.741,0,0,0-.618.288.935.935,0,0,0-.247.659v2.224h-.824V20.353a9.672,9.672,0,0,0-.041-1.071h.741l.041.576h.041a1.2,1.2,0,0,1,.453-.453,1.7,1.7,0,0,1,.782-.206,1.251,1.251,0,0,1,.865.329,1.706,1.706,0,0,1,.453,1.235l-.041,2.265Z" transform="translate(-110.824 -11.294)" fill="#fff"/><path d="M206.965,18.665h-.906v1.853c0,.453.165.7.494.7a1.14,1.14,0,0,0,.371-.041l.041.618a1.707,1.707,0,0,1-.659.082,1.087,1.087,0,0,1-.782-.288,1.513,1.513,0,0,1-.288-1.029V18.665H204.7v-.618h.535v-.7l.824-.247v.947h.906v.618Z" transform="translate(-120.412 -10.059)" fill="#fff"/><path d="M216.353,20.676h-.824V18.535c0-.659-.247-1.029-.782-1.029a.8.8,0,0,0-.782.576.7.7,0,0,0-.041.288v2.265H213.1V15.2h.824v2.265h0a1.279,1.279,0,0,1,1.153-.618,1.25,1.25,0,0,1,.865.329,1.772,1.772,0,0,1,.412,1.276v2.224Z" transform="translate(-125.353 -8.941)" fill="#fff"/><path d="M227.326,20.905a1.14,1.14,0,0,1-.041.371h-2.471a1.185,1.185,0,0,0,.371.865,1.218,1.218,0,0,0,.824.247,2.992,2.992,0,0,0,1.029-.165l.124.576a3.355,3.355,0,0,1-1.276.247,1.954,1.954,0,0,1-1.4-.494,1.741,1.741,0,0,1-.494-1.4,2.6,2.6,0,0,1,.453-1.441,1.677,1.677,0,0,1,1.318-.618,1.372,1.372,0,0,1,1.235.618A1.824,1.824,0,0,1,227.326,20.905Zm-.782-.206a1.208,1.208,0,0,0-.165-.659.742.742,0,0,0-.659-.371.8.8,0,0,0-.659.329,1.819,1.819,0,0,0-.247.659h1.729V20.7Z" transform="translate(-131.756 -11.229)" fill="#fff"/></svg>