<svg xmlns="http://www.w3.org/2000/svg" xmlns:xlink="http://www.w3.org/1999/xlink" width="106.977" height="35" viewBox="0 0 106.977 35"><defs><clipPath id="a"><path d="M34.653,25.556l-4.818-2.8L20.529,17.4c-.494-.288-1.029-.124-1.029.494V39.8c0,.453.371.659.824.412L29.835,34.7l4.818-2.8,4.653-2.676c.535-.329.494-.741.041-.988S34.653,25.556,34.653,25.556Z" transform="translate(-19.5 -17.266)"/></clipPath><linearGradient id="b" x1="0.5" y1="-0.765" x2="0.5" y2="0.236" gradientUnits="objectBoundingBox"><stop offset="0" stop-color="#287e96"/><stop offset="0.12" stop-color="#348698"/><stop offset="0.71" stop-color="#6ba89f"/><stop offset="1" stop-color="#81b5a2"/></linearGradient><linearGradient id="c" y1="-1.017" x2="1" y2="-1.017" gradientUnits="objectBoundingBox"><stop offset="0" stop-color="#51a593"/><stop offset="1" stop-color="#c4ce80"/></linearGradient><linearGradient id="d" x1="0.5" y1="-1.516" x2="0.5" y2="-0.516" gradientUnits="objectBoundingBox"><stop offset="0" stop-color="#d1403d"/><stop offset="0.04" stop-color="#ce4040"/><stop offset="0.69" stop-color="#974870"/><stop offset="1" stop-color="#814b83"/></linearGradient><linearGradient id="e" x1="0.5" y1="-2.839" x2="0.5" y2="-1.841" gradientUnits="objectBoundingBox"><stop offset="0" stop-color="#da807a"/><stop offset="0.48" stop-color="#df9877"/><stop offset="1" stop-color="#e3ad74"/></linearGradient></defs><path d="M4.735,0h97.506a4.736,4.736,0,0,1,4.735,4.735h0V30.265A4.736,4.736,0,0,1,102.241,35H4.735A4.71,4.71,0,0,1,0,30.265H0V4.735A4.736,4.736,0,0,1,4.735,0Z"/><g transform="translate(8.029 7.109)"><g clip-path="url(#a)"><path d="M19.5,16.4V40.076L31.441,28.218Z" transform="translate(-19.5 -16.757)" fill="url(#b)"/><path d="M34.653,24.871l-4.818-2.8L19.5,16.1v.124L31.441,28.041Z" transform="translate(-19.5 -16.58)" fill="url(#c)"/><path d="M19.5,56.959v.082l10.335-5.971,4.818-2.759L31.441,45.1Z" transform="translate(-19.5 -33.639)" fill="url(#d)"/><path d="M51.712,37.4,48.5,40.571l3.212,3.212,5.518-3.212Z" transform="translate(-36.559 -29.109)" fill="url(#e)"/></g></g><path d="M197.612,46.16a3.151,3.151,0,0,1-1.235-.247,2.162,2.162,0,0,1-.947-.782h-.082a10.849,10.849,0,0,1,.082,1.153v2.841H194.4V39.119h.865l.165.947h.041a2.6,2.6,0,0,1,.947-.824A3.151,3.151,0,0,1,197.653,39a2.432,2.432,0,0,1,2.1.947,4.279,4.279,0,0,1,.741,2.635,4.279,4.279,0,0,1-.741,2.635A2.676,2.676,0,0,1,197.612,46.16Zm-.165-6.259a1.874,1.874,0,0,0-1.524.576,2.933,2.933,0,0,0-.494,1.853v.247a3.279,3.279,0,0,0,.494,2.059,1.817,1.817,0,0,0,1.565.618,1.618,1.618,0,0,0,1.4-.741,3.3,3.3,0,0,0,.494-1.976,3.3,3.3,0,0,0-.494-1.976A1.619,1.619,0,0,0,197.447,39.9Z" transform="translate(-114.353 -22.936)" fill="#f9f9f9"/><path d="M213.529,42.1H212.5V32.3h1.029Z" transform="translate(-125 -19)" fill="#f9f9f9"/><path d="M222.77,46.151l-.206-.988h-.041a2.969,2.969,0,0,1-1.029.865,3.355,3.355,0,0,1-1.276.247,2.3,2.3,0,0,1-1.606-.535,1.905,1.905,0,0,1-.618-1.524c0-1.4,1.112-2.141,3.335-2.182l1.153-.041v-.412a1.6,1.6,0,0,0-.371-1.194A1.368,1.368,0,0,0,221,40.016a4.382,4.382,0,0,0-1.935.535l-.329-.782a4.063,4.063,0,0,1,1.112-.412,4.251,4.251,0,0,1,1.235-.165,2.776,2.776,0,0,1,1.812.535,2.169,2.169,0,0,1,.576,1.771v4.694l-.7-.041Zm-2.347-.741a2.045,2.045,0,0,0,1.524-.535,2.234,2.234,0,0,0,.576-1.482v-.618l-1.029.082a4.6,4.6,0,0,0-1.812.371,1.322,1.322,0,0,0-.206,1.935,1.426,1.426,0,0,0,.947.247Z" transform="translate(-128.229 -23.051)" fill="#f9f9f9"/><path d="M232.9,39.241h1.112l1.524,3.912a15.142,15.142,0,0,1,.618,1.935h.041c.041-.206.165-.576.329-1.112s.741-2.1,1.688-4.776h1.112l-2.965,7.865a3.853,3.853,0,0,1-1.029,1.647,2.266,2.266,0,0,1-1.441.494,3.739,3.739,0,0,1-.947-.124v-.824a4.56,4.56,0,0,0,.782.082,1.6,1.6,0,0,0,1.524-1.194l.371-.988Z" transform="translate(-137 -23.059)" fill="#f9f9f9"/><path d="M147.553,40.129a2.419,2.419,0,0,1,1.029,1.935,2.535,2.535,0,0,1-1.194,2.059.961.961,0,0,0-.412.7.765.765,0,0,0,.371.618l.535.412a2.546,2.546,0,0,1,1.194,2.018c0,1.359-1.318,2.718-3.788,2.718-2.1,0-3.088-.988-3.088-2.059a2.158,2.158,0,0,1,1.112-1.771,6.361,6.361,0,0,1,2.759-.659,1.7,1.7,0,0,1-.453-.988,1.029,1.029,0,0,1,.165-.576c-.165,0-.329.041-.453.041a2.262,2.262,0,0,1-2.388-2.141v-.124a2.692,2.692,0,0,1,.906-1.935,3.882,3.882,0,0,1,2.594-.782h2.965l-.906.535Zm-.988,6.424h-.329a4.914,4.914,0,0,0-1.524.247,1.6,1.6,0,0,0-1.235,1.482c0,1.029.988,1.771,2.553,1.771,1.4,0,2.1-.659,2.1-1.565C148.129,47.705,147.635,47.294,146.565,46.553Zm.412-2.759a1.613,1.613,0,0,0,.371-1.071c0-1.029-.618-2.635-1.812-2.635a1.358,1.358,0,0,0-.988.494,1.934,1.934,0,0,0-.329,1.071c0,.947.576,2.553,1.812,2.553a1.506,1.506,0,0,0,.947-.412Z" transform="translate(-83.647 -23.288)" fill="#f9f9f9"/><path d="M128.2,46.016a3.35,3.35,0,0,1-3.5-3.294V42.6a3.559,3.559,0,0,1,3.747-3.5,3.357,3.357,0,0,1,3.418,3.294v.124a3.532,3.532,0,0,1-3.541,3.5Zm1.812-1.153a2.712,2.712,0,0,0,.453-1.606c0-1.276-.618-3.706-2.388-3.706a1.771,1.771,0,0,0-1.276.494,2.182,2.182,0,0,0-.659,1.771c0,1.441.7,3.788,2.429,3.788a2.065,2.065,0,0,0,1.441-.741Z" transform="translate(-73.353 -22.999)" fill="#f9f9f9"/><path d="M109.2,46.016a3.35,3.35,0,0,1-3.5-3.294V42.6a3.559,3.559,0,0,1,3.747-3.5,3.357,3.357,0,0,1,3.418,3.294v.124a3.532,3.532,0,0,1-3.541,3.5Zm1.812-1.153a2.762,2.762,0,0,0,.412-1.606c0-1.276-.618-3.706-2.388-3.706a1.942,1.942,0,0,0-1.318.494,2.182,2.182,0,0,0-.659,1.771c0,1.441.7,3.788,2.429,3.788A1.893,1.893,0,0,0,111.012,44.864Z" transform="translate(-62.176 -22.999)" fill="#f9f9f9"/><path d="M88.806,41.182l-2.1.494a11.759,11.759,0,0,1-2.388.247A5.137,5.137,0,0,1,78.8,36.694c0-2.8,2.141-5.394,5.847-5.394a10.289,10.289,0,0,1,2.224.288,5.372,5.372,0,0,1,1.894.906l-1.194,1.153-.494.124.371-.576a4.21,4.21,0,0,0-3.088-1.359,3.974,3.974,0,0,0-3.994,4.282,5.112,5.112,0,0,0,5.106,5.271,4.8,4.8,0,0,0,1.853-.371V38.671l-2.182.124,1.153-.618h3.047l-.371.371a.249.249,0,0,0-.124.247c0,.124-.041.535-.041.7v1.688Z" transform="translate(-46.353 -18.412)" fill="#f9f9f9"/><path d="M162.047,40.3c-.494-.041-.576-.124-.576-.7V31.365c.041-.494.206-.576.659-.865h-2.059L159,31.035h1.112v8.935c0,.288-.041.329-.371.782h2.553l.535-.329C162.5,40.341,162.253,40.341,162.047,40.3Z" transform="translate(-93.529 -17.941)" fill="#f9f9f9"/><path d="M173.128,45.524c-.165.082-.329.206-.453.247a3.283,3.283,0,0,1-1.4.288,2.805,2.805,0,0,1-1.894-.576,3.784,3.784,0,0,1-1.482-3.047,3.269,3.269,0,0,1,3.212-3.335h.082a2.688,2.688,0,0,1,1.482.412,2.26,2.26,0,0,1,.988,1.441l-3.376,1.359-1.112.082a3.217,3.217,0,0,0,2.965,2.882,3.814,3.814,0,0,0,1.771-.494ZM171.811,41.2c.288-.082.412-.206.412-.371a1.43,1.43,0,0,0-1.441-1.235,1.763,1.763,0,0,0-1.647,1.976c0,.247.041.494.041.741Z" transform="translate(-98.763 -23)" fill="#f9f9f9"/><path d="M183.412,39.282v.947h-.124v-.947H183V39.2h.741v.082Z" transform="translate(-107.647 -23.059)" fill="#f9f9f9"/><path d="M186.041,40.229v-.947h0l-.288.947h-.082l-.288-.947h0v.947H185.3V39.2h.165l.247.824h0L186,39.2h.165v1.029Z" transform="translate(-109 -23.059)" fill="#f9f9f9"/><path d="M81.8,20.224h-.7a6.02,6.02,0,0,0-.206-.824H79.865a4.816,4.816,0,0,0-.206.824H79a13.449,13.449,0,0,1,.535-1.441c.206-.494.371-.988.535-1.482h.865a10.431,10.431,0,0,0,.494,1.482C81.512,19.235,81.676,19.729,81.8,20.224Zm-1.029-1.276a7.042,7.042,0,0,1-.371-1.235h-.041a11.452,11.452,0,0,1-.412,1.235Z" transform="translate(-46.471 -10.176)" fill="#e0e0df"/><path d="M89.429,20.224h-.535a6.49,6.49,0,0,0-.618-.988,6.472,6.472,0,0,1-.741-1.276h-.041a6.377,6.377,0,0,1,.041.906c0,.371,0,.824.041,1.359H87c.041-.453.041-.988.041-1.524A13.693,13.693,0,0,0,87,17.3h.659a4.482,4.482,0,0,0,.576.947,6.969,6.969,0,0,1,.7,1.194h0a6.672,6.672,0,0,1-.041-.906c0-.412,0-.824-.041-1.235h.576a13.693,13.693,0,0,0-.041,1.4C89.388,19.276,89.388,19.771,89.429,20.224Z" transform="translate(-51.176 -10.176)" fill="#e0e0df"/><path d="M97.271,18.65a1.555,1.555,0,0,1-.412,1.112,1.5,1.5,0,0,1-1.153.494,8,8,0,0,1-.906-.041c0-.453.041-.947.041-1.524a13.7,13.7,0,0,0-.041-1.4h.947a1.578,1.578,0,0,1,1.194.412A1.468,1.468,0,0,1,97.271,18.65Zm-.618.082a1.233,1.233,0,0,0-.247-.741.939.939,0,0,0-.782-.288h-.247c0,.288.041.618.041.947a9.672,9.672,0,0,0,.041,1.071c.082,0,.206.041.288.041a.745.745,0,0,0,.7-.288,1.678,1.678,0,0,0,.206-.741Z" transform="translate(-55.765 -10.168)" fill="#e0e0df"/><path d="M104.688,20.165h-.659a5.037,5.037,0,0,0-.412-.988.661.661,0,0,0-.453-.206h-.247v1.153H102.3c0-.453.041-.947.041-1.524a13.693,13.693,0,0,0-.041-1.4h1.071c.7,0,1.029.247,1.029.7a.805.805,0,0,1-.535.782v.041a.723.723,0,0,1,.412.371C104.4,19.424,104.565,19.794,104.688,20.165Zm-.824-2.059c0-.288-.206-.453-.576-.453a1.14,1.14,0,0,0-.371.041c0,.247.041.535.041.906h.206c.412,0,.659-.165.7-.494Z" transform="translate(-60.176 -10.118)" fill="#e0e0df"/><path d="M111.841,18.582a1.726,1.726,0,0,1-.412,1.153,1.4,1.4,0,0,1-1.029.453,1.277,1.277,0,0,1-.988-.412A1.458,1.458,0,0,1,109,18.706a1.726,1.726,0,0,1,.412-1.153,1.4,1.4,0,0,1,1.029-.453,1.277,1.277,0,0,1,.988.412A1.734,1.734,0,0,1,111.841,18.582Zm-.618.082a1.356,1.356,0,0,0-.247-.782.786.786,0,0,0-.576-.288.7.7,0,0,0-.535.288,1.234,1.234,0,0,0-.247.741,1.356,1.356,0,0,0,.247.782.786.786,0,0,0,.576.288.7.7,0,0,0,.535-.288,1.328,1.328,0,0,0,.247-.741Z" transform="translate(-64.118 -10.059)" fill="#e0e0df"/><path d="M118.118,20.224H117.5c0-.453.041-.988.041-1.524s0-1.029-.041-1.4h.618c0,.371-.041.824-.041,1.4S118.118,19.729,118.118,20.224Z" transform="translate(-69.118 -10.176)" fill="#e0e0df"/><path d="M123.371,18.65a1.555,1.555,0,0,1-.412,1.112,1.5,1.5,0,0,1-1.153.494,8,8,0,0,1-.906-.041c0-.453.041-.947.041-1.524a13.691,13.691,0,0,0-.041-1.4h.947a1.578,1.578,0,0,1,1.194.412A1.468,1.468,0,0,1,123.371,18.65Zm-.618.082a1.234,1.234,0,0,0-.247-.741.939.939,0,0,0-.782-.288h-.247c0,.288.041.618.041.947a9.67,9.67,0,0,0,.041,1.071c.082,0,.206.041.288.041a.745.745,0,0,0,.7-.288,1.678,1.678,0,0,0,.206-.741Z" transform="translate(-71.118 -10.168)" fill="#e0e0df"/><path d="M133.341,20.224H132.6a6.025,6.025,0,0,0-.206-.824h-1.029a4.818,4.818,0,0,0-.206.824H130.5a13.447,13.447,0,0,1,.535-1.441c.206-.494.371-.988.535-1.482h.865c.124.494.288.988.453,1.482A14.739,14.739,0,0,1,133.341,20.224Zm-1.071-1.276a7.044,7.044,0,0,1-.371-1.235h-.041a11.457,11.457,0,0,1-.412,1.235Z" transform="translate(-76.765 -10.176)" fill="#e0e0df"/><path d="M140.7,17.982a.847.847,0,0,1-.412.782,1.956,1.956,0,0,1-.988.247h-.124c0,.288,0,.659.041,1.112H138.6c0-.453.041-.947.041-1.524,0-.535,0-1.029-.041-1.4h1.112a1.27,1.27,0,0,1,.741.206A.813.813,0,0,1,140.7,17.982Zm-.576.124c0-.329-.206-.494-.659-.494a.907.907,0,0,0-.329.041c0,.288.041.576.041.947h.124c.576.041.824-.124.824-.494Z" transform="translate(-81.529 -10.118)" fill="#e0e0df"/><path d="M147.241,17.982a.847.847,0,0,1-.412.782,1.956,1.956,0,0,1-.988.247h-.165c0,.288,0,.659.041,1.112H145.1c0-.453.041-.947.041-1.524,0-.535,0-1.029-.041-1.4h1.112a1.27,1.27,0,0,1,.741.206A.865.865,0,0,1,147.241,17.982Zm-.576.124c0-.329-.206-.494-.659-.494a.907.907,0,0,0-.329.041c0,.288.041.576.041.947h.124C146.376,18.641,146.665,18.476,146.665,18.106Z" transform="translate(-85.353 -10.118)" fill="#e0e0df"/><path d="M156.882,18.582a1.726,1.726,0,0,1-.412,1.153,1.4,1.4,0,0,1-1.029.453,1.277,1.277,0,0,1-.988-.412A1.5,1.5,0,0,1,154,18.706a1.726,1.726,0,0,1,.412-1.153,1.4,1.4,0,0,1,1.029-.453,1.277,1.277,0,0,1,.988.412A1.5,1.5,0,0,1,156.882,18.582Zm-.618.082a1.356,1.356,0,0,0-.247-.782.786.786,0,0,0-.576-.288.865.865,0,0,0-.576.288,1.234,1.234,0,0,0-.247.741,1.356,1.356,0,0,0,.247.782.786.786,0,0,0,.576.288.865.865,0,0,0,.576-.288,1.328,1.328,0,0,0,.247-.741Z" transform="translate(-90.588 -10.059)" fill="#e0e0df"/><path d="M164.929,20.224h-.576a6.489,6.489,0,0,0-.618-.988,6.472,6.472,0,0,1-.741-1.276h-.041a6.377,6.377,0,0,1,.041.906c0,.371,0,.824.041,1.359H162.5c.041-.453.041-.988.041-1.524s0-1.029-.041-1.4h.659a3.251,3.251,0,0,0,.576.947,4.864,4.864,0,0,1,.659,1.194h.041a6.668,6.668,0,0,1-.041-.906c0-.412,0-.824-.041-1.235h.576a13.691,13.691,0,0,0-.041,1.4C164.888,19.276,164.888,19.771,164.929,20.224Z" transform="translate(-95.588 -10.176)" fill="#e0e0df"/></svg>