<svg xmlns="http://www.w3.org/2000/svg" width="120.364" height="35" viewBox="0 0 120.364 35"><g transform="translate(-5.49 -5.54)"><g transform="translate(5.49 5.54)"><path d="M12.328,40.54c-.277,0-.548,0-.819-.01a11.628,11.628,0,0,1-1.685-.143,5.353,5.353,0,0,1-1.494-.493,4.946,4.946,0,0,1-1.268-.921,4.824,4.824,0,0,1-.925-1.266,5.257,5.257,0,0,1-.489-1.494A11.2,11.2,0,0,1,5.5,34.518C5.5,34.332,5.49,33.7,5.49,33.7V12.372s0-.627.014-.809a11.09,11.09,0,0,1,.143-1.691,5.33,5.33,0,0,1,.489-1.5,4.933,4.933,0,0,1,.916-1.263A5.019,5.019,0,0,1,8.329,6.18,5.1,5.1,0,0,1,9.819,5.7a11.246,11.246,0,0,1,1.689-.143l.819-.013h106.7l.827.013a11.674,11.674,0,0,1,1.681.143,5.534,5.534,0,0,1,1.5.483,5.177,5.177,0,0,1,1.255.916,5.116,5.116,0,0,1,.925,1.272,5.029,5.029,0,0,1,.48,1.49,11.173,11.173,0,0,1,.155,1.7c0,.257,0,.533,0,.809.009.333.009.658.009.982V32.721c0,.324,0,.65-.009.969v.84A11.444,11.444,0,0,1,125.7,36.2a5.019,5.019,0,0,1-2.676,3.677,5.324,5.324,0,0,1-1.5.5,11.634,11.634,0,0,1-1.689.143c-.267,0-.544.01-.815.01H12.325Z" transform="translate(-5.49 -5.54)"/><path d="M72.426,46.41H62.244c-4.78,0-6.544,1.752-6.544,6.547V63.138c0,4.794,1.757,6.545,6.551,6.545h10.17c4.794,0,6.555-1.751,6.555-6.545V52.957c0-4.794-1.757-6.547-6.551-6.547" transform="translate(-48.5 -40.549)" fill="#ce0e2d" fill-rule="evenodd"/><path d="M75.841,127.544h.618v3.042h-.618V129.35h-1.4v1.236H73.83v-3.042h.614v1.228h1.4Zm3.476,1.742c0,.49-.248.757-.688.757s-.7-.272-.7-.779v-1.721h-.618v1.742a1.2,1.2,0,0,0,1.308,1.344,1.225,1.225,0,0,0,1.316-1.37V127.54h-.62Zm7.139.347-.7-2.089h-.5l-.688,2.089-.673-2.089H83.24l1.058,3.042h.511l.694-2,.684,2H86.7l1.063-3.042h-.64Zm2.419-.356H90v-.555H88.875V128.1h1.632v-.555H88.265v3.042H90.56v-.556H88.875Zm2.424,1.3h.608V127.54H91.3Zm-10.145-.632-.272.637H80.25l1.342-3.042h.542l1.339,3.042h-.65l-.271-.637Zm.231-.546h.931l-.472-1.09Z" transform="translate(-64.03 -110.044)" fill="#fff"/><path d="M113.712,77.412a3.882,3.882,0,0,1-3.872-3.872h.546a3.327,3.327,0,1,0,6.654,0h.546a3.879,3.879,0,0,1-3.872,3.872" transform="translate(-94.875 -63.788)" fill="#fff"/><path d="M270.626,59.926,269.6,63.021H268.29l3.343-9.841h1.533l3.359,9.841h-1.358l-1.051-3.095Zm3.227-.994-.964-2.832c-.219-.641-.366-1.225-.511-1.8h-.03c-.143.584-.307,1.183-.5,1.781l-.964,2.847Z" transform="translate(-230.603 -46.348)" fill="#fff"/><path d="M332.277,73.877c0-.9-.029-1.635-.057-2.306h1.147l.059,1.212h.029a2.779,2.779,0,0,1,2.511-1.372c1.708,0,2.993,1.446,2.993,3.585,0,2.54-1.547,3.8-3.212,3.8a2.48,2.48,0,0,1-2.176-1.11h-.029v3.852h-1.271Zm1.271,1.883a2.812,2.812,0,0,0,.059.526,1.982,1.982,0,0,0,1.927,1.5c1.357,0,2.151-1.11,2.151-2.725,0-1.417-.744-2.629-2.1-2.629a2.051,2.051,0,0,0-1.942,1.592,2.115,2.115,0,0,0-.087.525Z" transform="translate(-285.365 -61.964)" fill="#fff"/><path d="M387.849,73.877c0-.9-.029-1.635-.059-2.306h1.147l.057,1.212h.03a2.778,2.778,0,0,1,2.511-1.372c1.708,0,2.993,1.446,2.993,3.585,0,2.54-1.547,3.8-3.212,3.8a2.476,2.476,0,0,1-2.176-1.11h-.029v3.852h-1.263Zm1.271,1.883a2.941,2.941,0,0,0,.057.526,1.983,1.983,0,0,0,1.927,1.5c1.358,0,2.151-1.11,2.151-2.725,0-1.417-.744-2.629-2.1-2.629a2.226,2.226,0,0,0-2.029,2.117Z" transform="translate(-332.965 -61.964)" fill="#fff"/><path d="M449.034,61.975a9.194,9.194,0,0,1-3.023.539,4.621,4.621,0,0,1-5.051-4.963c.014-2.934,2.029-5.081,5.329-5.081a6.066,6.066,0,0,1,2.452.453l-.307,1.035a5.115,5.115,0,0,0-2.176-.43,3.681,3.681,0,0,0-3.957,3.957,3.607,3.607,0,0,0,3.8,3.971,4.133,4.133,0,0,0,1.694-.262V58.267h-2V57.244h3.241Z" transform="translate(-378.51 -45.74)" fill="#fff"/><path d="M509.227,78.643l-.1-.891h-.043a2.633,2.633,0,0,1-2.161,1.051,2.01,2.01,0,0,1-2.161-2.029c0-1.708,1.519-2.643,4.249-2.629V74a1.457,1.457,0,0,0-1.606-1.636,3.522,3.522,0,0,0-1.84.526l-.287-.848a4.4,4.4,0,0,1,2.322-.627c2.161,0,2.686,1.474,2.686,2.89V76.95a9.951,9.951,0,0,0,.118,1.694Zm-.189-3.607c-1.4-.029-2.993.219-2.993,1.592a1.137,1.137,0,0,0,1.212,1.226,1.758,1.758,0,0,0,1.708-1.182,1.328,1.328,0,0,0,.073-.409Z" transform="translate(-433.161 -61.97)" fill="#fff"/><path d="M554.89,49.52h1.291V59.885H554.89Z" transform="translate(-476.102 -43.213)" fill="#fff"/><path d="M575.75,49.52h1.291V59.885H575.75Z" transform="translate(-493.971 -43.213)" fill="#fff"/><path d="M595.132,75.336a2.264,2.264,0,0,0,2.424,2.454,4.635,4.635,0,0,0,1.96-.366l.219.919a5.718,5.718,0,0,1-2.352.439,3.283,3.283,0,0,1-3.473-3.562c0-2.128,1.255-3.81,3.313-3.81,2.307,0,2.921,2.029,2.921,3.328a4.852,4.852,0,0,1-.044.6Zm3.766-.919a1.83,1.83,0,0,0-1.781-2.088,2.132,2.132,0,0,0-1.97,2.088Z" transform="translate(-509.526 -61.964)" fill="#fff"/><path d="M645.649,73.774c0-.832-.014-1.547-.059-2.2h1.124l.044,1.387h.059a2.119,2.119,0,0,1,1.956-1.547,1.4,1.4,0,0,1,.364.043v1.212a1.953,1.953,0,0,0-.437-.043,1.8,1.8,0,0,0-1.721,1.649,3.517,3.517,0,0,0-.059.6v3.767h-1.272Z" transform="translate(-553.795 -61.963)" fill="#fff"/><path d="M675.333,72.513l1.547,4.175c.161.468.336,1.022.453,1.446h.029c.132-.43.278-.964.453-1.474l1.4-4.146h1.358l-1.927,5.036c-.919,2.424-1.547,3.664-2.424,4.424a3.482,3.482,0,0,1-1.577.832l-.321-1.08a3.423,3.423,0,0,0,1.124-.628,3.917,3.917,0,0,0,1.08-1.434.912.912,0,0,0,.1-.307,1.1,1.1,0,0,0-.087-.336L673.93,72.51Z" transform="translate(-578.071 -62.906)" fill="#fff"/><path d="M269.795,169.719a.43.43,0,0,1-.846,0,.416.416,0,0,1,.43-.43.406.406,0,0,1,.416.43Zm-.761,4.81v-3.756h.683v3.756Z" transform="translate(-231.166 -145.805)" fill="#fff"/><path d="M280.87,167.42h.683v5.508h-.683Z" transform="translate(-241.378 -144.205)" fill="#fff"/><path d="M291.438,181.137a1.2,1.2,0,0,0,1.291,1.3,2.458,2.458,0,0,0,1.04-.2l.116.489a3.023,3.023,0,0,1-1.248.234,1.745,1.745,0,0,1-1.847-1.893,1.823,1.823,0,0,1,1.761-2.025,1.59,1.59,0,0,1,1.552,1.768,2.709,2.709,0,0,1-.023.318Zm2.008-.489a.972.972,0,0,0-.947-1.109,1.131,1.131,0,0,0-1.047,1.109Z" transform="translate(-249.876 -154.167)" fill="#fff"/><path d="M331.39,169.37h.674V171.9h.024c.143-.2.278-.389.41-.559l1.6-1.962h.837l-1.893,2.219,2.041,3.012h-.8l-1.721-2.568-.5.574v1.995h-.674Z" transform="translate(-284.654 -145.876)" fill="#fff"/><path d="M362.948,172.146h-2.034v1.886h2.266v.574h-2.94V169.37h2.824v.566h-2.151v1.652h2.034Z" transform="translate(-309.366 -145.876)" fill="#fff"/><path d="M386.965,169.544a2.078,2.078,0,0,0-.992-.248c-.717,0-.985.43-.985.783,0,.489.317.729,1.038,1,.885.341,1.335.769,1.335,1.536A1.469,1.469,0,0,1,386,174.085l-.209.348a.608.608,0,0,1,.544.582c0,.449-.4.628-.792.628a1.232,1.232,0,0,1-.558-.132l.116-.35a.9.9,0,0,0,.43.1c.179,0,.326-.07.326-.234,0-.209-.239-.294-.6-.333l.31-.574h-.032a2.655,2.655,0,0,1-1.334-.334l.171-.566a2.388,2.388,0,0,0,1.21.341c.69,0,1.093-.364,1.093-.892,0-.489-.278-.767-.985-1.04-.853-.3-1.38-.744-1.38-1.481a1.5,1.5,0,0,1,1.691-1.42,2.373,2.373,0,0,1,1.156.257Z" transform="translate(-329.89 -145.328)" fill="#fff"/><path d="M411.1,169.37h2.816v.566h-2.141v1.737h1.978v.559h-1.978V174.6H411.1Z" transform="translate(-352.933 -145.876)" fill="#fff"/><path d="M438.008,172.146h-2.034v1.886h2.266v.574H435.3V169.37h2.825v.566h-2.151v1.652h2.032Z" transform="translate(-373.662 -145.876)" fill="#fff"/><path d="M460.371,169.208a9.729,9.729,0,0,1,1.434-.108,2.988,2.988,0,0,1,2.117.651,2.436,2.436,0,0,1,.737,1.877,2.779,2.779,0,0,1-.751,2.032,3.248,3.248,0,0,1-2.312.753,10.915,10.915,0,0,1-1.226-.062Zm.675,4.623a4.2,4.2,0,0,0,.683.039,2.009,2.009,0,0,0,2.226-2.219,1.865,1.865,0,0,0-2.118-2.016,3.728,3.728,0,0,0-.79.07Z" transform="translate(-395.137 -145.644)" fill="#fff"/><path d="M495.16,161.749a.394.394,0,0,1,.389-.389.386.386,0,0,1,.371.389.38.38,0,1,1-.76,0Zm.717.76v5.229H495.2v-5.229Z" transform="translate(-424.938 -139.014)" fill="#fff"/><path d="M507.33,174.6V169.37h.737l1.675,2.644a14.783,14.783,0,0,1,.939,1.7l.016-.009c-.063-.7-.077-1.334-.077-2.151V169.37h.635V174.6h-.683l-1.661-2.653a16.714,16.714,0,0,1-.977-1.747l-.023.009c.039.66.055,1.291.055,2.151v2.234Z" transform="translate(-435.362 -145.876)" fill="#fff"/></g></g></svg>