<svg xmlns="http://www.w3.org/2000/svg" xmlns:xlink="http://www.w3.org/1999/xlink" width="192" height="192" viewBox="0 0 192 192"><defs><clipPath id="a"><rect width="40.476" height="39.082" fill="#fff"/></clipPath><clipPath id="b"><rect width="99.731" height="114.588" fill="#fff"/></clipPath></defs><g transform="translate(-645 -303)"><g transform="translate(645 303)"><rect width="192" height="192" transform="translate(0)" fill="#b78a37"/><g transform="translate(56.319 38.4)"><path d="M93.009,9.667v9.12H95.8V15.245h2.79v3.54h2.976V9.667H98.589v3.347H95.8V9.667Z" transform="translate(-17.716 -1.841)" fill="#fff"/><path d="M93.009,30.281h2.605V37.35h3.348V30.281h2.605V28.048H93.009Z" transform="translate(-17.716 -5.342)" fill="#fff"/><rect width="8.557" height="2.379" transform="translate(75.293 18.726)" fill="#ed1f24"/><g transform="translate(59.253 0.004)"><g clip-path="url(#a)"><path d="M110.917,8.2A20.06,20.06,0,0,0,94.35,0,17.2,17.2,0,0,0,77.976,12.657a16.234,16.234,0,0,0,6.115,17.5c-.119-.1-.28-.248-.478-.438.217.192.428.4.664.593-.065-.052-.121-.1-.192-.156.1.084.169.144.192.167l.013.012h.01l-.013-.01A14.45,14.45,0,0,1,94.528,5.4c8.557,0,16,7.071,17.119,13.766a16.968,16.968,0,0,1,.278,2.02,17.773,17.773,0,0,1-3.55,11.823,21.889,21.889,0,0,1-3.222,2.9l-.021.372a21.12,21.12,0,0,0,6.077-6.3,18.958,18.958,0,0,0-.29-21.78" transform="translate(-74.032 -0.006)" fill="#fff"/><path d="M109.874,27.6a18.081,18.081,0,0,0,.413-4.431,15.782,15.782,0,0,0-6.541-12.881h0a14.87,14.87,0,0,1,4.1,12.649,14.3,14.3,0,0,1-15.068,11.9,18.371,18.371,0,0,1-16.558-13.4c-.09-.319-.167-.647-.234-.983a17.087,17.087,0,0,1-.227-2.529,17.745,17.745,0,0,1,6.6-13.786l-.031.025.033-.027a20.2,20.2,0,0,0-8.865,13.419,15.137,15.137,0,0,0,.121,6.492c.012.048.027.1.038.144A19.916,19.916,0,0,0,92.594,39.864a17.052,17.052,0,0,0,6.054-.847c.526-.129,1.048-.271,1.563-.438a19.686,19.686,0,0,0,4.836-3.166,17.536,17.536,0,0,0,4.827-7.814" transform="translate(-73.194 -0.794)" fill="#fff"/></g></g><g clip-path="url(#b)"><path d="M57.443,58.292A25.45,25.45,0,0,0,73.9,43.316,23.414,23.414,0,0,1,59.042,9.184,46.272,46.272,0,0,0,41.781,6.061H0V115.744H39.168c20.892,0,41.781-7.836,41.781-31.34A25.764,25.764,0,0,0,57.443,58.292M19.584,23.01H35.255c14.364,0,20.892,5.22,20.892,14.364,0,7.836-6.528,14.364-19.584,14.364H19.584ZM37.87,98.775H19.584V67.435H37.87c15.671,0,23.5,3.913,23.5,15.671,0,14.364-14.364,15.671-23.5,15.671" transform="translate(0 -1.155)" fill="#fff"/></g></g></g></g></svg>